<?xml version="1.0" encoding="UTF-8"?>
<svg version="1.1" xmlns="http://www.w3.org/2000/svg" width="1408" height="768">
<path d="M0 0 C464.64 0 929.28 0 1408 0 C1408 253.44 1408 506.88 1408 768 C943.36 768 478.72 768 0 768 C0 514.56 0 261.12 0 0 Z " fill="#14293E" transform="translate(0,0)"/>
<path d="M0 0 C2.29918926 0.01607995 4.59661542 0.00004919 6.89575195 -0.01904297 C45.95447452 -0.07533782 79.30394107 18.0614042 106.80004883 44.67236328 C110.38202439 48.28138355 113.3487042 52.15587983 116.24145508 56.32861328 C116.75393799 57.06370117 117.2664209 57.79878906 117.79443359 58.55615234 C125.54244669 69.84221968 131.99963542 81.37182195 136.36645508 94.39111328 C136.72352539 95.42494141 137.0805957 96.45876953 137.44848633 97.52392578 C138.52064512 100.79260463 139.46913984 104.07027998 140.36645508 107.39111328 C140.6680957 108.48681641 140.96973633 109.58251953 141.28051758 110.71142578 C149.4678695 146.13893924 141.52007805 186.13473774 122.55395508 216.82861328 C117.5541585 224.63429805 111.64611997 231.59478073 105.36645508 238.39111328 C104.55563477 239.28443359 103.74481445 240.17775391 102.90942383 241.09814453 C79.29812664 265.96244588 44.0421061 280.74122266 10.00317383 281.79736328 C7.10325661 281.85802066 4.20445715 281.8825324 1.30395508 281.89111328 C0.62538452 281.89578613 -0.05318604 281.90045898 -0.75231934 281.90527344 C-14.01486634 281.9406939 -27.02096367 280.09529717 -39.57104492 275.70361328 C-40.31136963 275.44870117 -41.05169434 275.19378906 -41.81445312 274.93115234 C-69.94197034 264.95013193 -94.63402886 247.1230481 -111.63354492 222.39111328 C-112.24262695 221.50794434 -112.24262695 221.50794434 -112.86401367 220.60693359 C-133.82008311 189.83375163 -141.51245377 151.62617733 -135.37963867 114.87158203 C-129.54880013 87.67117816 -117.64616145 63.79850494 -98.63354492 43.39111328 C-97.62227539 42.27542969 -97.62227539 42.27542969 -96.59057617 41.13720703 C-71.99090348 15.17379982 -35.56941483 -0.29455509 0 0 Z " fill="#9EBE1C" transform="translate(709.633544921875,206.60888671875)"/>
<path d="M0 0 C45.21 0 90.42 0 137 0 C137 2.64 137 5.28 137 8 C147.89 8 158.78 8 170 8 C170 31.64858288 161.61024762 51.11045049 145 68 C134.75301013 77.26634867 122.38574079 83.55143178 109.1875 87.375 C102.46572818 89.46496267 98.49000597 92.54836598 93.578125 97.51171875 C90.35625096 100.62131536 86.83449237 102.85824533 82.99609375 105.13671875 C79.36655985 108.52475724 79.11794635 112.85157503 78.62890625 117.61328125 C78.45601158 127.24453134 79.46521802 133.845156 85.9140625 141.17578125 C90.77609457 145.86985221 96.06547263 148.81780515 102.203125 151.578125 C108.14453563 154.59861867 109.9211019 156.84220381 113 163 C83.63 163 54.26 163 24 163 C27.22631534 154.93421164 33.3480706 151.65466922 41.0625 148.125 C48.26635636 144.6700893 53.60096514 139.62747363 57 132.3125 C59.35446564 124.61816784 59.53638417 114.4094343 55.79296875 107.15234375 C52.35896992 103.03004886 47.84544404 100.22732914 43.39453125 97.296875 C40.79317547 95.58373559 38.58081669 93.77379018 36.375 91.5625 C32.84036185 88.39623605 28.98527148 87.93127872 24.44140625 86.953125 C4.88043038 81.5355562 -12.62249396 66.99280707 -22.92578125 49.8046875 C-30.09542807 37.12220358 -34 22.52302635 -34 8 C-22.78 8 -11.56 8 0 8 C0 5.36 0 2.72 0 0 Z " fill="#F1BB1E" transform="translate(642,519)"/>
<path d="M0 0 C13.14863288 15.77835946 21.62737848 34.25616867 27 54 C27.45439453 55.64935547 27.45439453 55.64935547 27.91796875 57.33203125 C35.96936586 92.22141871 28.39308817 131.57657312 9.99462891 161.9753418 C7.02618089 166.71521144 4.15780449 171.18471488 0 175 C-10.47863877 170.45822314 -18.06294935 165.14500831 -26 157 C-26.75152344 156.24589844 -27.50304687 155.49179687 -28.27734375 154.71484375 C-47.6123031 134.26654701 -50.6684381 106.20227476 -50.3359375 79.34765625 C-49.59424756 55.73923652 -40.60342677 32.56282076 -23.40234375 16.04296875 C-16.16499208 9.88827782 -8.29593049 4.60767604 0 0 Z " fill="#9EBE1C" transform="translate(823,260)"/>
<path d="M0 0 C18.83191438 18.76513454 31.74811315 39.59758782 33 67 C33.04237793 67.88606934 33.08475586 68.77213867 33.12841797 69.68505859 C34.55483816 105.46393837 25.50498416 138.83150989 3 167 C1.37883788 168.72459271 -0.28931664 170.36211168 -2 172 C-13.44736679 155.04093808 -21.43817615 138.07383643 -26.25 118.125 C-26.41338867 117.44767822 -26.57677734 116.77035645 -26.74511719 116.07250977 C-35.19696192 79.12497316 -26.36899819 41.46574475 -6.76904297 9.8359375 C-4.63532394 6.4552999 -2.4769887 3.14355377 0 0 Z " fill="#9EBD1D" transform="translate(602,260)"/>
<path d="M0 0 C4.50173212 0.57843485 7.58175201 2.34730614 11.4375 4.6875 C42.53925143 23.04668819 83.79275189 29.02176413 119 20 C132.95442672 16.20002888 147.36145537 11.22778799 159.19140625 2.69921875 C162 1 162 1 164.1328125 1.03125 C166.4460343 2.23141528 168.01224905 3.67348934 169.875 5.5 C175.68799019 10.8748251 182.28110308 14.87117572 189 19 C182.75000165 33.74867335 159.87952178 43.77684485 146 50 C145.07960938 50.41741455 145.07960938 50.41741455 144.140625 50.84326172 C126.29785514 58.74002178 107.30547787 61.46079077 87.9375 61.5 C87.25938263 61.50449158 86.58126526 61.50898315 85.88259888 61.51361084 C72.61934683 61.54943299 59.61328719 59.70443091 47.0625 55.3125 C46.32217529 55.05758789 45.58185059 54.80267578 44.8190918 54.54003906 C22.59113579 46.65247184 3.28332745 34.12315523 -13 17 C-8.74093983 11.27445024 -4.39719064 5.62007798 0 0 Z " fill="#78A01B" transform="translate(623,427)"/>
<path d="M0 0 C3.43670606 1.24971129 5.39433094 3.26178639 7.75 6 C8.67039062 7.051875 8.67039062 7.051875 9.609375 8.125 C11 10 11 10 11 12 C8.62938723 13.52766061 6.24846354 14.95877417 3.8125 16.375 C-9.71227358 24.58641596 -19.32726013 34.16416685 -27 48 C-27.56332031 48.99128906 -28.12664063 49.98257813 -28.70703125 51.00390625 C-41.93428512 76.68821946 -40.80727292 108.55033237 -33.25 135.75 C-29.47099556 147.10132773 -24.05462709 157.11732714 -16 166 C-15.30003906 166.78117188 -14.60007812 167.56234375 -13.87890625 168.3671875 C-6.82371481 175.8373902 1.38274821 181.36681599 11 185 C9.48446596 188.47775179 7.4226544 190.9557984 4.875 193.75 C3.78832031 194.94882812 3.78832031 194.94882812 2.6796875 196.171875 C2.12539063 196.77515625 1.57109375 197.3784375 1 198 C-22.69442088 186.31319667 -38.95012514 166.07898073 -48.1875 141.625 C-58.39521384 108.21793654 -56.86267114 71.13775634 -40.625 40 C-37.05917666 33.42583973 -33.06505463 27.53092071 -28 22 C-27.37222656 21.28070313 -26.74445312 20.56140625 -26.09765625 19.8203125 C-18.96029237 12.12127507 -9.43747942 4.71873971 0 0 Z " fill="#FBFDF9" transform="translate(812,249)"/>
<path d="M0 0 C7.95218737 1.47872587 14.77584797 10.71065761 19.43212891 16.90527344 C25.16885019 25.31151459 29.34620639 34.52851561 33 44 C33.30550781 44.77472656 33.61101563 45.54945313 33.92578125 46.34765625 C38.50335164 58.90663141 39.49179318 71.57375783 39.39111328 84.80541992 C39.37508112 87.29987818 39.39103073 89.79270086 39.41015625 92.28710938 C39.43427768 108.28473574 37.15324696 123.27445525 31.9375 138.4375 C31.54828369 139.58347656 31.15906738 140.72945312 30.75805664 141.91015625 C25.62521037 156.5211479 18.70923457 169.89246845 9 182 C7.87464844 183.42699219 7.87464844 183.42699219 6.7265625 184.8828125 C4.83292939 187.26812579 2.92492339 189.63992106 1 192 C-2.3287315 190.59308516 -4.13167372 188.99308419 -6.3125 186.125 C-7.11107422 185.10792969 -7.11107422 185.10792969 -7.92578125 184.0703125 C-9 182 -9 182 -8.91796875 180.0390625 C-7.69461584 177.32165731 -5.98713726 175.47172985 -4 173.25 C4.9608594 162.55110428 10.95714566 149.94074006 16 137 C16.36738281 136.11054688 16.73476563 135.22109375 17.11328125 134.3046875 C28.16521431 105.03199993 27.49256502 68.8206407 15.01660156 40.16894531 C10.67786706 30.91214481 4.71746238 23.14128867 -2.45800781 15.90454102 C-4.30345097 14.02284096 -5.850905 12.3004576 -7.02734375 9.9296875 C-6.9857166 6.99200013 -5.54549749 5.83736578 -3.5625 3.75 C-2.57443359 2.69039062 -2.57443359 2.69039062 -1.56640625 1.609375 C-1.04949219 1.07828125 -0.53257812 0.5471875 0 0 Z " fill="#FCFDFA" transform="translate(610,251)"/>
<path d="M0 0 C13.14863288 15.77835946 21.62737848 34.25616867 27 54 C27.30292969 55.09957031 27.60585938 56.19914062 27.91796875 57.33203125 C35.96936586 92.22141871 28.39308817 131.57657312 9.99462891 161.9753418 C7.02618089 166.71521144 4.15780449 171.18471488 0 175 C-9.39518306 170.78976667 -16.70673435 166.41089897 -24 159 C-22.55813467 155.62319622 -20.77117562 153.6990738 -18.0625 151.25 C3.32683376 130.16966143 14.30054275 98.61296486 14.51928711 68.97680664 C14.51564936 67.60952748 14.50916457 66.24225328 14.5 64.875 C14.49823761 64.16310516 14.49647522 63.45121033 14.49465942 62.71774292 C14.38628651 42.94065054 10.24724378 23.32012275 0.79296875 5.7578125 C0 4 0 4 0 0 Z " fill="#79A01B" transform="translate(823,260)"/>
<path d="M0 0 C4.7191329 3.50780467 9.06830005 8.06933048 11.19140625 13.62890625 C12.24372406 23.04438139 11.53246089 30.62511009 6.19140625 38.62890625 C5.63453125 39.53640625 5.07765625 40.44390625 4.50390625 41.37890625 C-2.71005546 48.39789602 -10.48452175 51.12330221 -20.37890625 51.03515625 C-27.39055679 50.20461906 -32.54769808 46.28133489 -37.24609375 41.19140625 C-41.97237307 35.03251536 -43.44558298 29.38842166 -43.21484375 21.6875 C-41.91802797 11.92397352 -35.56090797 5.04608463 -28.0078125 -0.75390625 C-19.61968548 -5.89096049 -8.25480323 -4.77337057 0 0 Z " fill="#F1BC23" transform="translate(929.80859375,181.37109375)"/>
<path d="M0 0 C5.61782974 3.3109337 10.63655918 9.47217755 12.6875 15.625 C6.74160815 19.8500808 0.73487415 23.9843598 -5.3125 28.0625 C-6.30068726 28.73611572 -6.30068726 28.73611572 -7.30883789 29.42333984 C-12.08155678 32.625 -12.08155678 32.625 -14.3125 32.625 C-13.0035428 35.74697478 -13.0035428 35.74697478 -10.3125 37.625 C-4.33136328 38.22311367 -0.16506622 37.01393794 4.6875 33.625 C7.47445214 30.91646859 9.94390488 28.11219024 11.6875 24.625 C15.12345166 26.15208963 17.80662454 28.22427045 20.6875 30.625 C19.95511507 37.58886349 14.81685037 41.3539473 9.6875 45.625 C2.0533974 50.82028862 -5.0956388 53.12845963 -14.3125 51.625 C-22.40123418 49.26060078 -28.05772842 43.11172699 -32.1875 36 C-35.3019393 30.28675704 -36.19721776 24.05191524 -35.3125 17.625 C-32.96891477 10.64679105 -29.35911318 5.76071962 -23.3125 1.625 C-22.013125 0.696875 -22.013125 0.696875 -20.6875 -0.25 C-14.18999254 -2.41583582 -6.41306872 -2.6795198 0 0 Z " fill="#EFBC23" transform="translate(557.3125,159.375)"/>
<path d="M0 0 C4.75481646 0.57634139 7.97048212 2.55068521 12 5 C11.67 6.32 11.34 7.64 11 9 C11.639375 8.835 12.27875 8.67 12.9375 8.5 C18.92519519 7.52241711 23.89704275 6.97271891 29.3125 10.125 C32.89291471 12.71204615 35.22359598 14.85505729 37 19 C38.35307534 29.07794771 35.71438196 37.38516315 32.09277344 46.59765625 C31.23858595 48.77915012 30.42631074 50.97331871 29.6171875 53.171875 C29.08571074 54.56861528 28.5519422 55.96448618 28.015625 57.359375 C27.77378479 58.01339294 27.53194458 58.66741089 27.28277588 59.34124756 C25.51401278 63.75402419 25.51401278 63.75402419 22.98632812 64.96362305 C20.10627086 65.01636746 17.91905558 64.11105755 15.25 63.0625 C14.26515625 62.68222656 13.2803125 62.30195313 12.265625 61.91015625 C11.51796875 61.60980469 10.7703125 61.30945313 10 61 C12.26545718 52.94648987 15.15698167 45.24984024 18.30273438 37.50390625 C20.89781044 30.96884617 20.89781044 30.96884617 21 24 C18.90889337 20.94376723 17.70693151 20.13536986 14.0625 19.4375 C10.07723817 20.16948687 8.33394498 21.83735657 6 25 C3.8615128 28.94545172 2.05337911 33.01757319 0.25 37.125 C-0.24371094 38.22199219 -0.73742187 39.31898438 -1.24609375 40.44921875 C-3.81640765 46.14832721 -3.81640765 46.14832721 -6 52 C-11.34844008 51.46515599 -15.35796103 49.53309233 -20 47 C-19.32483283 42.22994983 -17.47187478 38.19746006 -15.5078125 33.84765625 C-15.16120575 33.06990341 -14.814599 32.29215057 -14.45748901 31.49082947 C-13.72517595 29.85000098 -12.99043241 28.21025535 -12.25341797 26.5715332 C-11.13134483 24.0766077 -10.01617499 21.57869247 -8.90234375 19.08007812 C-8.18790107 17.48159151 -7.47307001 15.88327842 -6.7578125 14.28515625 C-6.42645294 13.54435318 -6.09509338 12.80355011 -5.75369263 12.04029846 C-3.9255944 7.97795802 -2.02352872 3.97013054 0 0 Z " fill="#F1BC25" transform="translate(825,125)"/>
<path d="M0 0 C5.14789325 2.29816663 8.35867713 6.0768819 11 11 C12.53392129 15.57732908 13.61475355 20.23354345 14.6875 24.9375 C14.98205078 26.17435547 15.27660156 27.41121094 15.58007812 28.68554688 C16.14595896 31.06478969 16.70599756 33.44543208 17.25927734 35.82763672 C18.13145877 39.56301096 19.05546831 43.28236051 20 47 C14.89665983 48.905247 10.53657294 50.42589023 5 50 C3.58898163 46.67203525 2.56366482 43.4798154 1.81640625 39.9453125 C1.61080078 39.00042969 1.40519531 38.05554688 1.19335938 37.08203125 C0.77455044 35.1189454 0.35786515 33.15540522 -0.05664062 31.19140625 C-1.22946409 25.82053242 -2.49170877 20.90956203 -5 16 C-8.05693322 14.47153339 -10.62984547 14.76757555 -14 15 C-16.5771736 15.74536751 -16.5771736 15.74536751 -18 18 C-18.46036117 25.12497435 -17.23443445 31.30132646 -15.5 38.1875 C-15.02508783 40.09613351 -14.5561522 42.00626593 -14.09375 43.91796875 C-13.88427734 44.75094482 -13.67480469 45.5839209 -13.45898438 46.44213867 C-13 49 -13 49 -13 55 C-20.425 55.99 -20.425 55.99 -28 57 C-29.4453125 49.7734375 -30.890625 42.546875 -32.3359375 35.3203125 C-32.491763 34.5414267 -32.6475885 33.76254089 -32.80813599 32.96005249 C-33.11700403 31.41522609 -33.42549933 29.87032512 -33.73361206 28.3253479 C-34.37000304 25.13607066 -35.01070908 21.94814426 -35.66845703 18.76318359 C-35.85005371 17.88227051 -36.03165039 17.00135742 -36.21875 16.09375 C-36.37021484 15.37123047 -36.52167969 14.64871094 -36.67773438 13.90429688 C-37.12604545 11.25518598 -37.14090399 8.67717587 -37 6 C-34.00519083 5.1276588 -31.36424089 4.89170234 -28.25 4.9375 C-27.45078125 4.94652344 -26.6515625 4.95554687 -25.828125 4.96484375 C-25.22484375 4.97644531 -24.6215625 4.98804687 -24 5 C-24 6.32 -24 7.64 -24 9 C-23.29875 8.2575 -22.5975 7.515 -21.875 6.75 C-14.84995814 0.03039474 -9.63664212 -1.19228863 0 0 Z " fill="#F0BC26" transform="translate(664,113)"/>
<path d="M0 0 C8.37420486 6.09033081 11.98634829 16.35501869 16.125 25.5 C16.77126022 26.90925585 17.41838908 28.31811369 18.06640625 29.7265625 C19.63765288 33.14653702 21.19705887 36.57167695 22.75 40 C20.37886811 42.48240478 18.35641285 43.82491968 15.1875 45.1875 C14.40246094 45.53167969 13.61742187 45.87585938 12.80859375 46.23046875 C10.75 47 10.75 47 8.75 47 C8.37713867 46.17274414 8.00427734 45.34548828 7.62011719 44.49316406 C6.22575745 41.41103182 4.82339371 38.33280835 3.41552734 35.25683594 C2.80911197 33.92757343 2.20587612 32.59685544 1.60595703 31.26464844 C0.74052695 29.34434089 -0.13639575 27.42964666 -1.015625 25.515625 C-1.53930664 24.36352539 -2.06298828 23.21142578 -2.60253906 22.02441406 C-4.2194878 19.05601439 -5.62045305 17.10846708 -8.25 15 C-11.70750445 14.57539419 -14.08167192 14.29900315 -17.125 16.125 C-18.72349409 18.78915681 -18.99546587 20.89802257 -19.25 24 C-18.30692204 27.40080784 -18.30692204 27.40080784 -16.72265625 30.859375 C-16.32100502 31.80505341 -16.32100502 31.80505341 -15.91123962 32.76983643 C-15.058935 34.76955825 -14.18669193 36.759762 -13.3125 38.75 C-12.44594213 40.75603222 -11.58361109 42.7637901 -10.72447205 44.77301025 C-9.94641925 46.58731502 -9.15719267 48.39681578 -8.36743164 50.20605469 C-7.25 53 -7.25 53 -7.25 55 C-8.99692795 55.67467562 -10.74768525 56.33944156 -12.5 57 C-13.47453125 57.37125 -14.4490625 57.7425 -15.453125 58.125 C-18.25 59 -18.25 59 -22.25 59 C-24.82071839 52.64914767 -27.38338584 46.29509104 -29.94042969 39.9387207 C-30.81161545 37.77586075 -31.68465501 35.61374655 -32.55957031 33.45239258 C-33.81540967 30.34910247 -35.06460063 27.24320872 -36.3125 24.13671875 C-36.70622803 23.16788254 -37.09995605 22.19904633 -37.50561523 21.20085144 C-37.86598877 20.3001442 -38.2263623 19.39943695 -38.59765625 18.47143555 C-38.91742432 17.67867722 -39.23719238 16.88591888 -39.56665039 16.06913757 C-40.25 14 -40.25 14 -40.25 11 C-31.82142857 7.57142857 -31.82142857 7.57142857 -27.25 8 C-26.92 8.99 -26.59 9.98 -26.25 11 C-25.89808594 10.46890625 -25.54617188 9.9378125 -25.18359375 9.390625 C-18.60741144 -0.01863846 -11.42774172 -3.51622822 0 0 Z " fill="#F0BC25" transform="translate(607.25,131)"/>
<path d="M0 0 C2.6186472 0.19377989 3.76314312 0.78324336 5.703125 2.55859375 C6.21359375 3.17863281 6.7240625 3.79867187 7.25 4.4375 C8.03117187 5.36369141 8.03117187 5.36369141 8.828125 6.30859375 C10 8 10 8 10 10 C8.390625 11.5859375 8.390625 11.5859375 6.25 13.375 C3.3756268 15.81617866 0.61456008 18.27649992 -2 21 C-0.64397927 24.00677473 0.89095268 26.16876657 3.16796875 28.546875 C3.80718262 29.21968506 4.44639648 29.89249512 5.10498047 30.58569336 C6.13582764 31.65702515 6.13582764 31.65702515 7.1875 32.75 C8.63176099 34.26668852 10.07576478 35.78362198 11.51953125 37.30078125 C12.25896973 38.07502441 12.9984082 38.84926758 13.76025391 39.64697266 C17.32181256 43.38866683 20.84766864 47.16357182 24.375 50.9375 C25.6115812 52.25948695 26.84852852 53.58113159 28.0859375 54.90234375 C28.6020459 55.45398193 29.1181543 56.00562012 29.64990234 56.57397461 C30.74802636 57.73385569 31.87057526 58.87057526 33 60 C32.85677318 62.96417253 32.00676414 63.99299291 29.93359375 66.140625 C29.10988281 66.83671875 28.28617188 67.5328125 27.4375 68.25 C26.61121094 68.95640625 25.78492188 69.6628125 24.93359375 70.390625 C23.97646484 71.18726563 23.97646484 71.18726563 23 72 C16.80515724 66.81656014 11.05105678 61.41754838 5.76171875 55.3046875 C1.99800985 50.98693514 -1.81491999 46.72036973 -5.6875 42.5 C-6.33783203 41.77296875 -6.98816406 41.0459375 -7.65820312 40.296875 C-8.29048828 39.61109375 -8.92277344 38.9253125 -9.57421875 38.21875 C-10.41859497 37.2896582 -10.41859497 37.2896582 -11.2800293 36.34179688 C-13.16206087 34.58993705 -13.16206087 34.58993705 -17 35 C-19.14369849 36.44291876 -19.14369849 36.44291876 -21.125 38.375 C-21.80820312 39.00148437 -22.49140625 39.62796875 -23.1953125 40.2734375 C-24.47804607 41.50064148 -25.74472413 42.74472413 -27 44 C-29.8966677 43.80688882 -31.03210237 42.97235629 -33.25 41.0625 C-35 39 -35 39 -35 37 C-35.66 37 -36.32 37 -37 37 C-35.61404998 33.84244054 -34.03051549 31.83321784 -31.5078125 29.49609375 C-30.80825439 28.84302246 -30.10869629 28.18995117 -29.38793945 27.51708984 C-28.64116943 26.8308252 -27.89439941 26.14456055 -27.125 25.4375 C-25.98067505 24.37329834 -25.98067505 24.37329834 -24.81323242 23.28759766 C-19.39236267 18.25438015 -13.94003493 13.25451863 -8.45703125 8.2890625 C-6.37004421 6.34474707 -4.42948532 4.34705848 -2.5 2.25 C-1.675 1.5075 -0.85 0.765 0 0 Z " fill="#EFBB24" transform="translate(498,166)"/>
<path d="M0 0 C4.82505251 2.21492887 7.63546869 5.05003898 10.73828125 9.31640625 C8.42828125 11.95640625 6.11828125 14.59640625 3.73828125 17.31640625 C2.85140625 16.63578125 1.96453125 15.95515625 1.05078125 15.25390625 C-2.00904556 13.07532936 -2.00904556 13.07532936 -4.94921875 13.37890625 C-7.3965106 14.37105159 -8.66933243 15.22116109 -10.26171875 17.31640625 C-10.26171875 17.97640625 -10.26171875 18.63640625 -10.26171875 19.31640625 C-7.95171875 20.63640625 -5.64171875 21.95640625 -3.26171875 23.31640625 C-3.96725943 26.9852178 -5.53907381 30.02091159 -7.26171875 33.31640625 C-11.24296006 32.74765749 -13.87444203 31.43985871 -17.26171875 29.31640625 C-19.63826278 33.10710715 -22.01266543 36.89914505 -24.38671875 40.69140625 C-25.051875 41.75230469 -25.71703125 42.81320313 -26.40234375 43.90625 C-30.42560318 50.33557634 -34.38860063 56.79547047 -38.26171875 63.31640625 C-41.74909876 62.54107546 -44.05989482 61.2941375 -47.01171875 59.25390625 C-47.8109375 58.70605469 -48.61015625 58.15820312 -49.43359375 57.59375 C-50.036875 57.17222656 -50.64015625 56.75070313 -51.26171875 56.31640625 C-49.80841014 52.32347754 -47.89311755 48.91226092 -45.63671875 45.31640625 C-45.28915527 44.75824219 -44.9415918 44.20007813 -44.58349609 43.625 C-43.10779699 41.25539965 -41.62282078 38.89165748 -40.13867188 36.52734375 C-39.05144512 34.79236678 -37.96899654 33.05447314 -36.88671875 31.31640625 C-36.23960937 30.28515625 -35.5925 29.25390625 -34.92578125 28.19140625 C-33.43060381 25.60818889 -32.28060571 23.11577244 -31.26171875 20.31640625 C-32.58171875 19.65640625 -33.90171875 18.99640625 -35.26171875 18.31640625 C-34.73056769 13.80162227 -32.89551583 10.96973768 -30.26171875 7.31640625 C-26.79671875 8.80140625 -26.79671875 8.80140625 -23.26171875 10.31640625 C-23.00390625 9.72214844 -22.74609375 9.12789062 -22.48046875 8.515625 C-21.16334898 6.13889925 -19.84827941 4.84855052 -17.76171875 3.12890625 C-16.8490625 2.36513672 -16.8490625 2.36513672 -15.91796875 1.5859375 C-11.38157706 -1.89124953 -5.32328978 -1.60893905 0 0 Z " fill="#F1BC23" transform="translate(908.26171875,139.68359375)"/>
<path d="M0 0 C2.35476233 1.1740268 4.56086973 2.39899285 6.7421875 3.8671875 C5.63004884 7.36248044 4.42645559 10.61187942 2.7421875 13.8671875 C2.10152344 13.650625 1.46085938 13.4340625 0.80078125 13.2109375 C-7.71388507 10.27296145 -7.71388507 10.27296145 -16.2578125 11.8671875 C-16.27541199 13.79861451 -16.27541199 13.79861451 -15.2578125 15.8671875 C-12.23520016 17.5053908 -12.23520016 17.5053908 -8.5703125 18.8046875 C-2.50890049 21.21182918 2.09969349 23.38389994 6.1171875 28.6796875 C7.84175645 34.71567882 7.05406807 39.69761864 4.08984375 45.10546875 C1.79333181 48.10757566 -0.85103986 49.28997794 -4.2578125 50.8671875 C-5.2478125 51.3621875 -5.2478125 51.3621875 -6.2578125 51.8671875 C-16.67783515 52.5369541 -24.93602222 51.62109385 -34.2578125 46.8671875 C-33.78050412 45.4082449 -33.30090208 43.95005254 -32.8203125 42.4921875 C-32.42005859 41.27402344 -32.42005859 41.27402344 -32.01171875 40.03125 C-31.2578125 37.8671875 -31.2578125 37.8671875 -30.2578125 35.8671875 C-24.546875 37.7265625 -24.546875 37.7265625 -21.9453125 38.9921875 C-17.111778 40.56589641 -12.06256598 40.46877199 -7.2578125 38.8671875 C-7.80980148 36.39527822 -7.80980148 36.39527822 -9.2578125 33.8671875 C-12.08839099 32.39018627 -12.08839099 32.39018627 -15.4453125 31.4296875 C-21.72803023 29.21961644 -26.88258092 26.80443577 -30.41015625 20.95703125 C-31.89861397 17.28733135 -31.78582979 13.7528532 -31.2578125 9.8671875 C-29.17804044 5.3610147 -26.19320288 2.25267484 -21.921875 -0.2109375 C-15.07942619 -2.57870571 -6.7937352 -2.36232998 0 0 Z " fill="#F1BD25" transform="translate(747.2578125,109.1328125)"/>
<path d="M0 0 C8.25 0 16.5 0 25 0 C25.804375 3.361875 26.60875 6.72375 27.4375 10.1875 C31.35856283 25.68503402 37.24013824 40.37382456 45.78515625 53.91796875 C47 56 47 56 47 58 C30.97145508 53.53302847 17.43179521 42.26431521 9 28 C3.82903375 18.67270153 0 10.73972563 0 0 Z " fill="#172A3B" transform="translate(619,537)"/>
<path d="M0 0 C8.25 0 16.5 0 25 0 C22.86648558 17.06811538 15.92333971 29.85696727 4 42 C3.32324219 42.70125 2.64648438 43.4025 1.94921875 44.125 C-2.55234602 48.46549183 -7.41290537 51.59065067 -12.875 54.5625 C-13.53000488 54.92166504 -14.18500977 55.28083008 -14.85986328 55.65087891 C-16.53151376 56.51944334 -18.2636771 57.2692454 -20 58 C-20.99 57.67 -21.98 57.34 -23 57 C-22.50371094 56.175 -22.00742187 55.35 -21.49609375 54.5 C-13.86074963 41.60353298 -8.03461174 28.45880173 -4 14 C-3.62482139 12.69368723 -3.24847405 11.38770968 -2.87109375 10.08203125 C-1.90093995 6.72485419 -0.95111068 3.36285563 0 0 Z " fill="#162A3B" transform="translate(777,537)"/>
<path d="M0 0 C10.55808656 0.96355353 10.55808656 0.96355353 15 2 C14.41096682 7.64331789 13.34798157 12.85932637 11.8125 18.3125 C9.28386961 27.57945168 7.18012179 36.92173831 5.14379883 46.30786133 C3.56255328 53.5751037 1.84679075 60.79556695 0 68 C-11.625 66.125 -11.625 66.125 -15 65 C-14.32131523 59.70582237 -13.2928825 54.57717876 -12.07421875 49.3828125 C-11.88535599 48.56738983 -11.69649323 47.75196716 -11.50190735 46.91183472 C-10.89985787 44.31557469 -10.29372846 41.72028703 -9.6875 39.125 C-9.2920533 37.42193637 -8.89686895 35.71881181 -8.50195312 34.015625 C-7.5310308 29.8318224 -6.55414305 25.64943833 -5.57562256 21.46740723 C-4.99686797 18.98657453 -4.42303616 16.50464265 -3.85009766 14.02246094 C-3.48996234 12.47069071 -3.12977593 10.91893234 -2.76953125 9.3671875 C-2.60523117 8.65080109 -2.44093109 7.93441467 -2.27165222 7.19631958 C-1.11325431 2.22650863 -1.11325431 2.22650863 0 0 Z " fill="#EEBB27" transform="translate(797,102)"/>
<path d="M0 0 C0.41119755 4.83379547 0.82000368 9.66778583 1.22680664 14.50195312 C1.36485723 16.1387244 1.50350703 17.77544526 1.64282227 19.41210938 C2.56648639 30.26933103 3.35756503 41.1222662 4 52 C-1.28 52 -6.56 52 -12 52 C-12.43032765 45.86210856 -12.85747743 39.72400713 -13.28173828 33.58569336 C-13.42638139 31.49937021 -13.57187883 29.4131061 -13.71826172 27.3269043 C-13.92902954 24.32095368 -14.13668129 21.31480118 -14.34375 18.30859375 C-14.40937134 17.38227646 -14.47499268 16.45595917 -14.54260254 15.50157166 C-14.87335176 10.6534946 -15.06979234 5.85929185 -15 1 C-14.01 0.835 -13.02 0.67 -12 0.5 C-11.1646875 0.36078125 -11.1646875 0.36078125 -10.3125 0.21875 C-6.87345154 -0.10656539 -3.45410699 -0.01224861 0 0 Z " fill="#EDBA26" transform="translate(703,108)"/>
<path d="M0 0 C1.80094122 2.70141182 2.79999221 5.09696268 3.85058594 8.1394043 C10.45072699 27.12725864 21.20911874 43.16561418 36.04296875 56.66015625 C38 59 38 59 38.01171875 61.0234375 C36.77424008 63.44105991 35.32510173 65.44275291 33.625 67.5625 C33.01914062 68.32691406 32.41328125 69.09132813 31.7890625 69.87890625 C30.26423966 71.68672023 28.70452916 73.36344286 27 75 C11.76052999 52.4230074 0.95955777 27.58728585 0 0 Z " fill="#79A11C" transform="translate(573,357)"/>
<path d="M0 0 C5.57894737 3.15789474 5.57894737 3.15789474 7 6 C7.07011753 13.01175318 5.25419774 17.48150193 0.4609375 22.6640625 C-2.47284563 25.49067547 -5.01250816 27.35836675 -9.0625 28.125 C-13.66360646 27.97893313 -15.53568904 26.95733863 -19 24 C-20.6484985 20.70300301 -20.62387606 17.54943076 -20 14 C-16.50086833 6.22702115 -9.28233811 -1.81610963 0 0 Z " fill="#192C3C" transform="translate(921,191)"/>
<path d="M0 0 C2.625 2.0625 2.625 2.0625 4 5 C4 8.7455316 3.81498619 10.98941713 1.4375 13.9375 C-2.09204141 15.47601805 -5.22055094 15.8209459 -9 15 C-12.02791041 12.42627616 -12.86162709 10.84753406 -13.5 6.9375 C-13 4 -13 4 -11.5625 1.625 C-7.77856055 -0.77457136 -4.35571858 -0.90943575 0 0 Z " fill="#EBBA28" transform="translate(699,88)"/>
<path d="M0 0 C1.9375 1.5625 1.9375 1.5625 3 3 C1.65965294 7.02104119 -0.91663705 8.16305684 -4.375 10.25 C-4.96539063 10.62640625 -5.55578125 11.0028125 -6.1640625 11.390625 C-7.72594869 12.34745618 -9.36087978 13.18250427 -11 14 C-11.99 13.67 -12.98 13.34 -14 13 C-14.82176704 6.19107307 -14.82176704 6.19107307 -12.6875 3.09765625 C-8.5191641 -0.85668026 -5.69545695 -1.86197631 0 0 Z " fill="#1B2E3A" transform="translate(549,170)"/>
<path d="M0 0 C0.66 0.33 1.32 0.66 2 1 C-0.64 3.64 -3.28 6.28 -6 9 C-6.99 8.67 -7.98 8.34 -9 8 C-7.87811441 6.85111717 -6.75238316 5.70598863 -5.625 4.5625 C-4.99851562 3.92441406 -4.37203125 3.28632813 -3.7265625 2.62890625 C-2 1 -2 1 0 0 Z " fill="#96B11E" transform="translate(621,241)"/>
<path d="M0 0 C-1.49097658 3.7952131 -3.75700849 5.61042731 -7 8 C-6.44414399 4.1090079 -4.34122117 0 0 0 Z " fill="#E1B024" transform="translate(471,193)"/>
<path d="M0 0 C0 3 0 3 -1.3125 4.38671875 C-2.875 5.59114583 -4.4375 6.79557292 -6 8 C-6 5 -6 5 -4.6875 3.61328125 C-3.125 2.40885417 -1.5625 1.20442708 0 0 Z " fill="#E3B423" transform="translate(534,161)"/>
<path d="M0 0 C-1.28519565 2.86697492 -2.57129254 4.97607712 -5 7 C-5.66 7 -6.32 7 -7 7 C-3.86206897 0 -3.86206897 0 0 0 Z " fill="#E8B520" transform="translate(482,183)"/>
<path d="M0 0 C0.99 0.33 1.98 0.66 3 1 C-1.5 5.875 -1.5 5.875 -6 7 C-4.02 4.69 -2.04 2.38 0 0 Z " fill="#E5B426" transform="translate(646,116)"/>
<path d="M0 0 C0 3 0 3 -2 5.1875 C-2.66 5.785625 -3.32 6.38375 -4 7 C-4.66 6.67 -5.32 6.34 -6 6 C-2.25 1.125 -2.25 1.125 0 0 Z " fill="#E8B61C" transform="translate(673,673)"/>
<path d="M0 0 C0.66 0.33 1.32 0.66 2 1 C0.35 2.98 -1.3 4.96 -3 7 C-3.66 6.67 -4.32 6.34 -5 6 C-3.35 4.02 -1.7 2.04 0 0 Z " fill="#27383A" transform="translate(909,194)"/>
</svg>
